<svg width="551" height="180" viewBox="0 0 551 180" fill="none" xmlns="http://www.w3.org/2000/svg">
<path d="M0 151.023V118.125L71.5057 5.45459H100.739V50.1137H83.7784L41.9318 116.421V117.784H145.483V151.023H0ZM84.2898 180V140.966L85.142 126.563V5.45459H124.602V180H84.2898Z" fill="#0052CC"/>
<g clip-path="url(#clip0_4789_44278)">
<path d="M271.412 136.151C265.558 136.151 260.797 140.96 260.797 146.871C260.797 152.781 265.558 157.59 271.412 157.59C277.264 157.59 282.026 152.781 282.026 146.871C282.026 140.96 277.264 136.151 271.412 136.151ZM271.412 153.09C268.04 153.09 265.297 150.3 265.297 146.871C265.297 143.442 268.04 140.651 271.412 140.651C274.784 140.651 277.526 143.442 277.526 146.871C277.526 150.3 274.784 153.09 271.412 153.09Z" fill="#0052CC"/>
<path d="M276.061 46.5061C274.591 46.0436 273.029 45.8096 271.418 45.8096C262.489 45.8096 255.223 53.155 255.234 62.4L255.499 65.0312C255.499 65.1049 255.502 65.1993 255.51 65.2729L260.802 118.759C260.865 124.612 265.603 129.355 271.418 129.355C277.272 129.355 282.034 124.547 282.023 118.857L287.307 65.2729C287.309 65.2488 287.311 65.2213 287.313 65.1938L287.6 62.4154C287.608 62.3385 287.612 62.2605 287.612 62.1836C287.612 60.1489 287.243 58.1703 286.526 56.3268C284.751 51.6082 280.828 47.9332 276.061 46.5061ZM277.534 118.639C277.534 122.067 274.791 124.855 271.418 124.855C268.046 124.855 265.301 122.067 265.301 118.639C265.301 118.564 265.298 118.489 265.29 118.414L259.999 65.0521C259.999 64.9796 259.996 64.8862 259.988 64.8148L259.723 62.1836C259.723 55.6357 264.969 50.3096 271.418 50.3096C272.571 50.3096 273.678 50.4744 274.741 50.8083C278.2 51.8433 281.031 54.4987 282.323 57.9352C282.833 59.2469 283.099 60.6389 283.112 62.0737L277.534 118.639Z" fill="#0052CC"/>
<path d="M248.721 7.21692C256.114 5.41406 263.752 4.5 271.421 4.5C287.239 4.5 302.938 8.45837 316.819 15.9467C317.158 16.1301 317.524 16.2169 317.885 16.2169C318.685 16.2169 319.46 15.7896 319.866 15.0348C320.456 13.9417 320.049 12.5771 318.955 11.9872C304.42 4.14514 287.982 0 271.421 0C263.392 0 255.396 0.956909 247.656 2.84436C246.448 3.13879 245.708 4.35608 246.002 5.56348C246.298 6.77197 247.516 7.50366 248.721 7.21692Z" fill="#0052CC"/>
<path d="M188.247 44.0706C180.009 56.0908 174.544 69.4436 172.004 83.7566C171.786 84.9804 172.602 86.1483 173.825 86.3647C173.958 86.3889 174.091 86.3999 174.221 86.3999C175.292 86.3999 176.24 85.633 176.434 84.5432C178.862 70.8641 184.084 58.1035 191.958 46.6151C192.661 45.5901 192.4 44.1893 191.375 43.4873C190.352 42.7863 188.951 43.0456 188.247 44.0706Z" fill="#0052CC"/>
<path d="M172.348 93.6442C171.109 93.5991 170.043 94.5209 169.97 95.7601C169.855 97.7508 169.797 99.7767 169.797 101.782C169.797 103.024 170.804 104.032 172.047 104.032C173.289 104.032 174.297 103.024 174.297 101.782C174.297 99.8635 174.353 97.9255 174.464 96.0216C174.535 94.7801 173.588 93.7167 172.348 93.6442Z" fill="#0052CC"/>
<path d="M271.421 23.3999C228.546 23.3999 193.664 58.5254 193.664 101.701C193.664 144.875 228.546 180 271.421 180C314.295 180 349.177 144.875 349.177 101.701C349.177 58.5254 314.295 23.3999 271.421 23.3999ZM271.421 175.5C231.027 175.5 198.164 142.394 198.164 101.701C198.164 61.0072 231.027 27.8999 271.421 27.8999C311.814 27.8999 344.677 61.0072 344.677 101.701C344.677 142.394 311.814 175.5 271.421 175.5Z" fill="#0052CC"/>
<path d="M225.485 77.3811C215.883 77.3811 208.07 85.2429 208.07 94.9054C208.07 104.568 215.883 112.43 225.485 112.43C235.088 112.43 242.9 104.568 242.9 94.9054C242.9 85.2429 235.088 77.3811 225.485 77.3811ZM225.485 107.93C218.363 107.93 212.57 102.087 212.57 94.9054C212.57 87.7236 218.363 81.8811 225.485 81.8811C232.606 81.8811 238.4 87.7236 238.4 94.9054C238.4 102.087 232.606 107.93 225.485 107.93Z" fill="#0052CC"/>
<path d="M239.268 49.6089C234.226 49.6089 230.125 53.7332 230.125 58.8022C230.125 63.8713 234.226 67.9945 239.268 67.9945C244.309 67.9945 248.412 63.8713 248.412 58.8022C248.412 53.7332 244.309 49.6089 239.268 49.6089ZM239.268 63.4945C236.708 63.4945 234.625 61.3895 234.625 58.8022C234.625 56.2139 236.708 54.1089 239.268 54.1089C241.829 54.1089 243.912 56.2139 243.912 58.8022C243.912 61.3895 241.829 63.4945 239.268 63.4945Z" fill="#0052CC"/>
<path d="M325.782 92.3357C318.389 92.3357 312.375 98.3859 312.375 105.823C312.375 113.259 318.389 119.309 325.782 119.309C333.173 119.309 339.187 113.259 339.187 105.823C339.187 98.3859 333.173 92.3357 325.782 92.3357ZM325.782 114.809C320.871 114.809 316.875 110.777 316.875 105.823C316.875 100.868 320.871 96.8357 325.782 96.8357C330.693 96.8357 334.687 100.868 334.687 105.823C334.687 110.777 330.693 114.809 325.782 114.809Z" fill="#0052CC"/>
<path d="M321.133 125.281C316.984 125.281 313.609 128.674 313.609 132.843C313.609 137.013 316.984 140.405 321.133 140.405C325.282 140.405 328.657 137.013 328.657 132.843C328.657 128.674 325.282 125.281 321.133 125.281ZM321.133 135.905C319.466 135.905 318.109 134.532 318.109 132.843C318.109 131.155 319.466 129.781 321.133 129.781C322.801 129.781 324.157 131.155 324.157 132.843C324.157 134.532 322.801 135.905 321.133 135.905Z" fill="#0052CC"/>
<path d="M203.322 41.3283C203.699 41.7942 204.247 42.0897 204.844 42.1501C204.92 42.1578 204.994 42.1611 205.069 42.1611C205.589 42.1611 206.094 41.9809 206.499 41.648L236.462 16.9848C239.171 14.7546 239.574 10.7226 237.361 7.99582C236.284 6.66867 234.757 5.8447 233.061 5.67331C231.374 5.50083 229.71 6.0051 228.391 7.08945L212.169 20.4431L207.166 18.6317C204.68 17.7297 201.865 18.2153 199.82 19.8995L193.218 25.3322C192.263 26.1178 192.123 27.5262 192.902 28.4864L198.112 34.9079L203.322 41.3283ZM202.678 23.3745C203.502 22.6955 204.637 22.4989 205.634 22.8625L208.131 23.7671L203.529 27.5559C202.57 28.3458 202.432 29.763 203.222 30.7232C204.011 31.6823 205.427 31.8208 206.39 31.0298L231.25 10.5644C231.635 10.248 232.127 10.1129 232.611 10.1502C233.105 10.2008 233.551 10.4425 233.867 10.8325C234.528 11.6455 234.408 12.8474 233.602 13.511L205.389 36.7339L201.606 32.0735L197.804 27.3867L202.678 23.3745Z" fill="#0052CC"/>
</g>
<path d="M373.484 151.023V118.125L444.99 5.45459H474.223V50.1137H457.263L415.416 116.421V117.784H518.967V151.023H373.484ZM457.774 180V140.966L458.626 126.563V5.45459H498.087V180H457.774Z" fill="#0052CC"/>
<defs>
<clipPath id="clip0_4789_44278">
<rect width="180" height="180" fill="white" transform="translate(169.484)"/>
</clipPath>
</defs>
</svg>
